<svg version="1.2" xmlns="http://www.w3.org/2000/svg" viewBox="0 0 2048 2048" width="2048" height="2048">
	<title>hangman</title>
	<style>
		.s0 { fill: #000000 } 
	</style>
	<path id="Ebene 1" class="s0" d="m0 1983c0-8.3 6.7-15 15-15h870c8.3 0 15 6.7 15 15v50c0 8.3-6.7 15-15 15h-870c-8.3 0-15-6.7-15-15z"/>
	<path id="Form 1" class="s0" d="m220 1975c0 8.3-6.7 15-15 15h-50c-8.3 0-15-6.7-15-15v-1720c0-8.3 6.7-15 15-15h50c8.3 0 15 6.7 15 15z"/>
	<path id="Form 2" class="s0" d="m40 200c0-8.3 6.7-15 15-15h1320c8.3 0 15 6.7 15 15v50c0 8.3-6.7 15-15 15h-1320c-8.3 0-15-6.7-15-15z"/>
	<path id="Form 3" class="s0" d="m164 628.7c-5.9-5.8-5.9-15.3 0-21.2l403-403c5.9-5.9 15.4-5.9 21.2 0l35.4 35.3c5.8 5.9 5.8 15.4 0 21.2l-403.1 403.1c-5.8 5.8-15.3 5.8-21.2 0z"/>
	<path id="Form 4" class="s0" d="m1220 255c0-8.3 6.7-15 15-15h50c8.3 0 15 6.7 15 15v220c0 8.3-6.7 15-15 15h-50c-8.3 0-15-6.7-15-15z"/>
	<path id="Form 6" class="s0" d="m1220 735c0-8.3 6.7-15 15-15h50c8.3 0 15 6.7 15 15v470c0 8.3-6.7 15-15 15h-50c-8.3 0-15-6.7-15-15z"/>
	<path id="Form 5" fill-rule="evenodd" class="s0" d="m1260 460c77.3 0 140 62.7 140 140 0 77.3-62.7 140-140 140-77.3 0-140-62.7-140-140 0-77.3 62.7-140 140-140zm-60 140c0 33.1 26.9 60 60 60 33.1 0 60-26.9 60-60 0-33.1-26.9-60-60-60-33.1 0-60 26.9-60 60z"/>
	<path id="Form 7" class="s0" d="m1219.5 1183.9c5.9-5.8 15.4-5.8 21.2 0l35.4 35.4c5.8 5.8 5.8 15.3 0 21.2l-155.6 155.6c-5.9 5.8-15.4 5.8-21.2 0l-35.4-35.4c-5.8-5.8-5.8-15.3 0-21.2z"/>
	<path id="Form 7 copy" class="s0" d="m1219.5 763.9c5.9-5.8 15.4-5.8 21.2 0l35.4 35.4c5.8 5.8 5.8 15.3 0 21.2l-155.6 155.6c-5.9 5.8-15.4 5.8-21.2 0l-35.4-35.4c-5.8-5.8-5.8-15.3 0-21.2z"/>
	<path id="Form 7 copy 2" class="s0" d="m1243.9 1240.5c-5.8-5.9-5.8-15.4 0-21.2l35.4-35.4c5.8-5.8 15.3-5.8 21.2 0l155.6 155.6c5.8 5.9 5.8 15.4 0 21.2l-35.4 35.4c-5.8 5.8-15.3 5.8-21.2 0z"/>
	<path id="Form 7 copy 3" class="s0" d="m1243.9 820.5c-5.8-5.9-5.8-15.4 0-21.2l35.4-35.4c5.8-5.8 15.3-5.8 21.2 0l155.6 155.6c5.8 5.9 5.8 15.4 0 21.2l-35.4 35.4c-5.8 5.8-15.3 5.8-21.2 0z"/>
</svg>